<svg xmlns="http://www.w3.org/2000/svg" width="555" height="100" xml:space="preserve"><g fill="#FFF"><path d="M282.173 51.648c0 2.918-.554 5.242-1.661 6.972-1.109 1.732-2.583 2.596-4.42 2.596-1.89 0-3.391-.863-4.499-2.596-1.108-1.729-1.662-4.054-1.662-6.972 0-2.919.554-5.243 1.662-6.972 1.108-1.73 2.609-2.596 4.499-2.596 1.837 0 3.311.865 4.42 2.596 1.107 1.73 1.661 4.053 1.661 6.972m16.216 0c0-6.597-2.001-11.809-6-15.65-4-3.837-9.434-5.754-16.297-5.754-6.866 0-12.311 1.917-16.336 5.754-4.026 3.841-6.041 9.053-6.041 15.65 0 6.595 2.015 11.81 6.041 15.647 4.025 3.84 9.471 5.757 16.336 5.757 6.864 0 12.297-1.917 16.297-5.757 3.999-3.837 6-9.052 6-15.647M441.21 57.567c-1.755 1.785-2.635 3.92-2.635 6.403 0 2.488.88 4.624 2.635 6.406 1.76 1.787 3.908 2.676 6.449 2.676 2.539 0 4.689-.889 6.445-2.676 1.758-1.782 2.635-3.918 2.635-6.406 0-2.483-.877-4.618-2.635-6.403-1.756-1.784-3.906-2.675-6.445-2.675-2.541.001-4.689.891-6.449 2.675M331.229 30.649c-3.028 0-5.693.892-7.987 2.676-2.3 1.78-3.985 4.214-5.066 7.295v-9.242h-17.434v10.863h4.056v18.813h-4.056v10.865h27.163V61.054H320.2l-.082-5.921c.216-2.757 1.339-4.999 3.367-6.73 2.027-1.729 4.715-2.593 8.066-2.593h1.298V30.649h-1.62zM169.551 33.851c-3.243 2.407-4.864 5.665-4.864 9.771 0 2.7.744 4.904 2.231 6.608a12.41 12.41 0 0 0 5.431 3.648 63.944 63.944 0 0 0 6.405 1.825c2.136.484 3.945 1.107 5.433 1.864 1.484.759 2.228 1.785 2.228 3.08 0 1.137-.416 1.933-1.254 2.391-.84.462-2.259.688-4.258.688-.971 0-2-.079-3.079-.237v-4.3h-13.137v11.917c5.781 1.298 11.458 1.946 17.027 1.946 6.596 0 11.635-1.203 15.122-3.608 3.487-2.404 5.229-5.718 5.229-9.934 0-2.754-.758-5.065-2.268-6.93-1.515-1.865-3.365-3.231-5.554-4.094a69.272 69.272 0 0 0-6.568-2.231c-2.191-.622-4.043-1.268-5.554-1.945-1.517-.676-2.271-1.525-2.271-2.553 0-1.732 1.219-2.595 3.65-2.595 1.351 0 3.08.378 5.187 1.135v4.297h11.757v-9.488c-5.728-3.241-11.73-4.863-17.999-4.863-5.354 0-9.65 1.202-12.894 3.608M234.417 51.647c0 2.919-.527 5.243-1.583 6.973-1.054 1.732-2.472 2.596-4.255 2.596-1.734 0-3.111-.863-4.137-2.596-1.026-1.729-1.539-4.054-1.539-6.973 0-2.918.513-5.242 1.539-6.972 1.026-1.729 2.403-2.595 4.137-2.595 1.783 0 3.201.865 4.255 2.595 1.056 1.731 1.583 4.054 1.583 6.972m16.217.082c0-6.594-1.476-11.827-4.42-15.691-2.948-3.864-6.959-5.794-12.042-5.794-6.161 0-10.595 2.944-13.297 8.838v-7.705h-17.432V42.24h4.055v34.22h-4.055v10.864h25.136V76.46h-5.675v-9.001c2.81 3.728 6.619 5.594 11.43 5.594 4.975 0 8.932-1.917 11.88-5.757 2.944-3.838 4.42-9.026 4.42-15.567M390.577 57.406c0 1.837-.473 3.295-1.417 4.378-.949 1.082-2.261 1.621-3.936 1.621-1.406 0-2.512-.379-3.322-1.138-.812-.756-1.216-1.755-1.216-2.997 0-1.245.471-2.217 1.417-2.919.945-.704 2.256-1.056 3.931-1.056 1.3 0 2.812.269 4.543.811v1.3zm19.217 14.513V61.054h-4.055V44.919c0-4.54-1.678-8.124-5.027-10.745-3.353-2.62-8.107-3.931-14.271-3.931-6.704 0-12.866 1.623-18.486 4.862v9.489h13.3v-4.215c1.458-.27 2.7-.407 3.727-.407 3.729 0 5.596 1.622 5.596 4.864v4.136c-2.322-.431-4.92-.651-7.783-.651-5.407 0-9.636 1.124-12.69 3.364-3.054 2.246-4.58 5.313-4.58 9.204 0 3.679 1.243 6.624 3.729 8.841 2.486 2.215 5.867 3.322 10.137 3.322 6.212 0 10.567-2.298 13.053-6.891v5.757h17.35zM494.408 45.293h-.779c-3.436-.003-6.265.893-8.403 2.716-2.125 1.812-3.325 4.211-3.543 7.084l.083 6.476h7.7v9.832h-26.133v-9.832h4.054v-19.84h-4.054V31.89h16.405l-.003 11.746 1.003-2.845c1.057-3.003 2.681-5.342 4.896-7.062 2.209-1.717 4.745-2.564 7.67-2.566h1.104v14.13zm1.031 1.03v-16.19h-2.152c-3.118 0-5.908.931-8.285 2.782-1.76 1.364-3.173 3.1-4.235 5.184v-7.237h-18.465v11.896h4.055V60.54h-4.055v11.893h28.194V60.54h-7.711l-.074-5.413c.211-2.593 1.257-4.677 3.184-6.331 1.917-1.633 4.469-2.467 7.733-2.474h1.811zM521.957 39.933l-.342-.124c-2.14-.767-3.92-1.163-5.364-1.163-1.272.001-2.287.215-3.034.743-.754.523-1.143 1.385-1.131 2.364.004 1.32.996 2.332 2.577 3.023 1.545.694 3.417 1.346 5.623 1.973a71.457 71.457 0 0 1 6.52 2.212c2.108.834 3.878 2.142 5.344 3.942 1.432 1.771 2.152 3.942 2.152 6.611-.009 4.068-1.642 7.171-5.003 9.506-3.359 2.318-8.298 3.521-14.83 3.516-5.401 0-10.904-.614-16.513-1.846V59.702h12.101v4.225l.438.067a21.44 21.44 0 0 0 3.161.249c2.041-.005 3.517-.219 4.504-.752 1.015-.54 1.541-1.591 1.525-2.845.013-1.513-.924-2.751-2.509-3.541-1.537-.778-3.39-1.413-5.555-1.908a61.411 61.411 0 0 1-6.349-1.809 11.896 11.896 0 0 1-5.216-3.501c-1.394-1.598-2.099-3.656-2.102-6.267.011-3.975 1.534-7.027 4.655-9.354 3.133-2.322 7.311-3.508 12.588-3.508 6.085 0 11.904 1.545 17.484 4.652v8.667h-10.729l.005-4.144zm-1.029 5.175h12.784v-10.3l-.26-.152c-5.8-3.282-11.896-4.929-18.253-4.929-5.428 0-9.844 1.22-13.202 3.707-3.36 2.481-5.081 5.943-5.073 10.186 0 2.795.775 5.141 2.359 6.947a12.977 12.977 0 0 0 5.655 3.799 62.43 62.43 0 0 0 6.454 1.837c2.102.477 3.877 1.092 5.314 1.822 1.385.726 1.937 1.546 1.95 2.621-.016 1.017-.332 1.559-.995 1.941-.684.384-2.049.63-4.006.626a19.31 19.31 0 0 1-2.566-.176v-4.365h-14.161v12.842l.401.096c5.799 1.303 11.493 1.956 17.088 1.956h.051c6.65 0 11.795-1.208 15.411-3.696 3.614-2.479 5.469-6 5.454-10.355.003-2.851-.789-5.298-2.388-7.262-1.565-1.931-3.494-3.354-5.763-4.252a72.111 72.111 0 0 0-6.617-2.242c-2.173-.613-4.001-1.258-5.482-1.923-1.447-.652-1.967-1.35-1.967-2.082.042-1.404.779-2.006 3.134-2.077 1.188 0 2.756.319 4.677.983v4.448zM344.523 20.999l-5.921 10.378h-4.538l.081 10.783h4.457l.085 16.787c.05 4.107 1.47 7.362 4.254 9.77 2.785 2.403 6.583 3.604 11.394 3.604h8.919V61.457h-4.298c-1.515 0-2.703-.429-3.567-1.295-.865-.865-1.296-2.028-1.296-3.488l-.082-14.513h8.352V31.377h-8.352l-.084-10.378h-9.404z"/></g><path fill="#FFF" d="M411.821 12.729v10.864h4.053v37.461h-4.053v10.865h23.512V61.054h-4.054V12.729z"/><g fill="#FFF"><path d="M100.873 96.734c3.652-2.205 5.66-5.583 5.629-9.644.014-4.438-2.421-8.303-6.841-11.333-4.37-3.016-9.76-5.329-16.157-6.968-6.246-1.6-13.003-3.774-20.26-6.524-7.253-2.75-14.007-5.761-20.254-9.04-6.105-3.202-11.201-7.993-15.332-14.448-4.091-6.392-6.146-13.976-6.147-22.857.002-2.597.178-5.08.497-7.472a72.59 72.59 0 0 0-2.762 4.117 62.745 62.745 0 0 0-.095 3.355c-.001 9.241 2.161 17.32 6.521 24.127 4.314 6.751 9.732 11.865 16.223 15.264 6.34 3.327 13.18 6.379 20.514 9.158 7.325 2.777 14.16 4.976 20.509 6.604 6.191 1.583 11.318 3.805 15.4 6.623 4.02 2.805 5.811 5.848 5.824 9.393-.029 3.312-1.405 5.693-4.505 7.633-3.106 1.91-7.577 2.938-13.433 2.935-6.518 0-13.26-1.183-20.242-3.574V76.927H18v11.02a73.383 73.383 0 0 0 2.358 3.832V79.285h43.247l.001 16.47.785.278c7.214 2.559 14.239 3.876 21.065 3.967h1.528c5.754-.09 10.394-1.132 13.889-3.266zM129.825 44.012c-6.351-3.327-13.23-6.343-20.645-9.045-7.401-2.698-14.269-4.861-20.609-6.483-6.208-1.59-11.351-3.7-15.438-6.301-4.032-2.589-5.775-5.373-5.788-8.564.013-2.867 1.211-5.374 3.864-7.76 2.552-2.276 6.336-3.5 11.542-3.5 5.141-.003 10.736 1.028 16.786 3.112v18.076h47.502v-5.964a74.344 74.344 0 0 0-2.358-4.248v7.855h-42.788V3.804l-.78-.279C94.563 1.184 88.443 0 82.752 0h-.019c-5.543 0-9.966 1.314-13.09 4.098-3.03 2.683-4.667 5.934-4.656 9.52-.011 4.175 2.462 7.77 6.88 10.553 4.357 2.772 9.729 4.959 16.118 6.597 6.25 1.598 13.046 3.739 20.388 6.415 7.327 2.671 14.111 5.644 20.356 8.917 6.104 3.204 11.2 7.997 15.333 14.449 3.349 5.245 5.313 11.248 5.924 18.039a73.057 73.057 0 0 0 1.731-4.788c-1-5.31-2.881-10.162-5.669-14.521-4.319-6.75-9.737-11.862-16.223-15.267z"/></g><path fill="none" d="M0 0h555v100H0z"/></svg>